<svg xmlns="http://www.w3.org/2000/svg" viewBox="0 0 29 37.33"><defs><style>.cls-11,.cls-33{fill:#fff;}.cls-2{fill:none;stroke:#fff;stroke-linecap:round;stroke-miterlimit:10;stroke-width:2px;}.cls-33{font-size:11.54px;font-family:ArialRoundedMTBold, Arial Rounded MT Bold;}</style></defs><title>cv</title><g id="Layer_2" data-name="Layer 2"><g id="Layer_1-2" data-name="Layer 1"><path class="cls-11" d="M16.58,2v8.85a1.58,1.58,0,0,0,1.57,1.57H27V33.77a1.56,1.56,0,0,1-1.56,1.56H3.56A1.56,1.56,0,0,1,2,33.77V3.56A1.56,1.56,0,0,1,3.56,2h13m2-2h-15A3.57,3.57,0,0,0,0,3.56V33.77a3.56,3.56,0,0,0,3.56,3.56H25.44A3.56,3.56,0,0,0,29,33.77V10.42H18.58V0Z"/><path class="cls-11" d="M19.06,2a1.53,1.53,0,0,1,1.11.46l6.37,6.38A1.53,1.53,0,0,1,27,9.94v.39H18.67V2h.39m0-2h-.39a2,2,0,0,0-2,2v8.33a2,2,0,0,0,2,2H27a2,2,0,0,0,2-2V9.94a3.59,3.59,0,0,0-1-2.52L21.59,1a3.57,3.57,0,0,0-2.53-1Z"/><line class="cls-2" x1="8.25" y1="26.76" x2="20.75" y2="26.76"/><line class="cls-2" x1="8.25" y1="31.43" x2="20.75" y2="31.43"/><text class="cls-33" transform="translate(6.26 23.31)">CV</text></g></g></svg>