<svg xmlns="http://www.w3.org/2000/svg" viewBox="0 0 29.46 29.46"><defs><style>.cls-11{fill:#fff;}</style></defs><title>edit</title><g id="Layer_2" data-name="Layer 2"><g id="Layer_1-2" data-name="Layer 1"><path class="cls-11" d="M16.46,6.75a.62.62,0,0,1,.44.18l5.63,5.63a.62.62,0,0,1,0,.87L8.88,27.08l-5.8.64H3a1.22,1.22,0,0,1-1.21-1.35l.64-5.8L16,6.93a.61.61,0,0,1,.43-.18m0-1.73a2.32,2.32,0,0,0-1.65.68L1.16,19.35a1.76,1.76,0,0,0-.5,1L0,26.18a2.91,2.91,0,0,0,.73,2.29,2.94,2.94,0,0,0,2.2,1l.33,0,5.8-.64a1.76,1.76,0,0,0,1-.5L23.76,14.65a2.35,2.35,0,0,0,0-3.31L18.12,5.7A2.33,2.33,0,0,0,16.46,5Z"/><path class="cls-11" d="M22.25,1.73A2.41,2.41,0,0,1,24,2.45L27,5.5A2.44,2.44,0,0,1,27,9l-2.21,2.21a.61.61,0,0,1-.43.18.58.58,0,0,1-.43-.18L18.31,5.52a.6.6,0,0,1,0-.86l2.21-2.21a2.43,2.43,0,0,1,1.73-.72m0-1.73A4.15,4.15,0,0,0,19.3,1.22L17.08,3.43a2.37,2.37,0,0,0,0,3.32l5.64,5.63a2.33,2.33,0,0,0,3.31,0l2.22-2.21a4.19,4.19,0,0,0,0-5.9l-3.05-3A4.15,4.15,0,0,0,22.25,0Z"/></g></g></svg>