<svg xmlns="http://www.w3.org/2000/svg" viewBox="0 0 19.3 14.47"><defs><style>.cls-1{fill:gray;}</style></defs><title>email</title><g id="Layer_2" data-name="Layer 2"><g id="Layer_1-2" data-name="Layer 1"><path class="cls-1" d="M18.93,4.78A.23.23,0,0,1,19.3,5v7.7a1.81,1.81,0,0,1-1.81,1.81H1.81A1.81,1.81,0,0,1,0,12.66V5a.23.23,0,0,1,.37-.18c.84.66,2,1.49,5.8,4.28.8.59,2.14,1.81,3.48,1.8s2.71-1.24,3.48-1.8C17,6.27,18.09,5.44,18.93,4.78ZM9.65,9.65c.87,0,2.13-1.1,2.77-1.56,5-3.63,5.38-3.95,6.53-4.85a.91.91,0,0,0,.35-.71V1.81A1.81,1.81,0,0,0,17.49,0H1.81A1.81,1.81,0,0,0,0,1.81v.72a.93.93,0,0,0,.35.71c1.15.9,1.53,1.22,6.53,4.85.64.46,1.89,1.57,2.77,1.56Z"/></g></g></svg>