<svg xmlns="http://www.w3.org/2000/svg" viewBox="0 0 16.88 16.88"><defs><style>.cls-1{fill:gray;}</style></defs><title>nationality</title><g id="Layer_2" data-name="Layer 2"><g id="Layer_1-2" data-name="Layer 1"><path class="cls-1" d="M12.13,6.26H16.6a8.3,8.3,0,0,1,.28,2.18,8.19,8.19,0,0,1-.28,2.18H12.13A19.26,19.26,0,0,0,12.13,6.26ZM6,11.71a10.86,10.86,0,0,0,2.39,5.17h0a10.81,10.81,0,0,0,2.39-5.17ZM12,5.17h4.27A8.48,8.48,0,0,0,10,.14a13.08,13.08,0,0,1,2,5ZM11,6.26H5.86a16.75,16.75,0,0,0,0,4.36H11A17.67,17.67,0,0,0,11,6.26ZM4.92,11.71H.66a8.44,8.44,0,0,0,6.25,5,13.06,13.06,0,0,1-2-5Zm7,0a13.06,13.06,0,0,1-2,5,8.47,8.47,0,0,0,6.26-5ZM10.85,5.17A10.81,10.81,0,0,0,8.46,0h0A11,11,0,0,0,6,5.17ZM.28,6.26A8.74,8.74,0,0,0,0,8.44a8.62,8.62,0,0,0,.28,2.18H4.76a18.17,18.17,0,0,1,0-4.36ZM4.92,5.17a13.08,13.08,0,0,1,2-5,8.45,8.45,0,0,0-6.25,5Z"/></g></g></svg>