<svg xmlns="http://www.w3.org/2000/svg" viewBox="0 0 29.83 33.53"><defs><style>.cls-11{fill:#fff;}</style></defs><title>notification</title><g id="Layer_2" data-name="Layer 2"><g id="Layer_1-2" data-name="Layer 1"><path class="cls-11" d="M14.92,2a1.85,1.85,0,0,1,1.84,1.85,1.76,1.76,0,0,1-.33,1A9.24,9.24,0,0,1,24.14,14c0,6.23,1.6,7.83,2.88,9.11a2.77,2.77,0,0,1-2,4.73H18.61a3.7,3.7,0,0,1-7.39,0H4.77a2.77,2.77,0,0,1-2-4.73C4.09,21.83,5.69,20.23,5.69,14A9.24,9.24,0,0,1,13.4,4.89a1.79,1.79,0,0,1-.33-1A1.85,1.85,0,0,1,14.92,2m0,28.14a.46.46,0,0,0,.46-.46.47.47,0,0,0-.46-.46,1.38,1.38,0,0,1-1.39-1.38h-.92a2.3,2.3,0,0,0,2.31,2.3M14.92,0a3.86,3.86,0,0,0-3.83,3.43A11.19,11.19,0,0,0,3.69,14c0,5.4-1.22,6.62-2.29,7.7a4.77,4.77,0,0,0,3.37,8.14H9.59a5.69,5.69,0,0,0,10.65,0h4.82a4.77,4.77,0,0,0,3.37-8.14c-1.07-1.08-2.29-2.29-2.29-7.7a11.19,11.19,0,0,0-7.4-10.57A3.85,3.85,0,0,0,14.92,0Z"/></g></g></svg>